<svg id="visual" viewBox="0 0 900 600" width="900" height="600" xmlns="http://www.w3.org/2000/svg" xmlns:xlink="http://www.w3.org/1999/xlink" version="1.1"><rect width="900" height="600" fill="#001829"></rect><g><g transform="translate(650 77)"><path d="M0 -112L97 -56L97 56L0 112L-97 56L-97 -56Z" fill="#297EA6"></path></g><g transform="translate(87 238)"><path d="M0 -82L71 -41L71 41L0 82L-71 41L-71 -41Z" fill="#297EA6"></path></g><g transform="translate(311 26)"><path d="M0 -67L58 -33.5L58 33.5L0 67L-58 33.5L-58 -33.5Z" fill="#297EA6"></path></g><g transform="translate(566 587)"><path d="M0 -69L59.8 -34.5L59.8 34.5L0 69L-59.8 34.5L-59.8 -34.5Z" fill="#297EA6"></path></g></g></svg>