<svg id="visual" viewBox="0 0 900 600" width="900" height="600" xmlns="http://www.w3.org/2000/svg" xmlns:xlink="http://www.w3.org/1999/xlink" version="1.1"><g stroke-width="1" stroke-linejoin="bevel"><path d="M478 218L672 379L672 214Z" fill="#297ea6" stroke="#297ea6"></path><path d="M478 218L453 427L672 379Z" fill="#081a28" stroke="#081a28"></path><path d="M672 214L646 0L478 218Z" fill="#1d4e6b" stroke="#1d4e6b"></path><path d="M646 0L439 0L478 218Z" fill="#297ea6" stroke="#297ea6"></path><path d="M478 218L217 380L453 427Z" fill="#277297" stroke="#277297"></path><path d="M453 427L700 600L672 379Z" fill="#205a7a" stroke="#205a7a"></path><path d="M672 379L900 207L672 214Z" fill="#277297" stroke="#277297"></path><path d="M216 600L447 600L453 427Z" fill="#0c2435" stroke="#0c2435"></path><path d="M453 427L447 600L700 600Z" fill="#112e42" stroke="#112e42"></path><path d="M900 398L900 207L672 379Z" fill="#081a28" stroke="#081a28"></path><path d="M672 214L900 0L646 0Z" fill="#112e42" stroke="#112e42"></path><path d="M700 600L900 398L672 379Z" fill="#246688" stroke="#246688"></path><path d="M439 0L251 167L478 218Z" fill="#112e42" stroke="#112e42"></path><path d="M251 167L217 380L478 218Z" fill="#112e42" stroke="#112e42"></path><path d="M900 207L900 0L672 214Z" fill="#00101c" stroke="#00101c"></path><path d="M700 600L900 600L900 398Z" fill="#246688" stroke="#246688"></path><path d="M217 380L216 600L453 427Z" fill="#15384f" stroke="#15384f"></path><path d="M439 0L206 0L251 167Z" fill="#277297" stroke="#277297"></path><path d="M0 197L0 385L217 380Z" fill="#081a28" stroke="#081a28"></path><path d="M217 380L0 385L216 600Z" fill="#1d4e6b" stroke="#1d4e6b"></path><path d="M0 197L217 380L251 167Z" fill="#277297" stroke="#277297"></path><path d="M206 0L0 197L251 167Z" fill="#00101c" stroke="#00101c"></path><path d="M206 0L0 0L0 197Z" fill="#15384f" stroke="#15384f"></path><path d="M0 385L0 600L216 600Z" fill="#081a28" stroke="#081a28"></path></g></svg>